<?xml version="1.0" encoding="UTF-8"?>
<!-- Generator: visioncortex VTracer 0.6.3 -->
<svg version="1.1" xmlns="http://www.w3.org/2000/svg" width="1280" height="822">
<path d="M0 0 C422.4 0 844.8 0 1280 0 C1280 271.26 1280 542.52 1280 822 C857.6 822 435.2 822 0 822 C0 550.74 0 279.48 0 0 Z " fill="#FCFCFC" transform="translate(0,0)"/>
<path d="M0 0 C1.43 2.86 1.13 5.28 1.14 8.48 C1.14 9.15 1.14 9.83 1.15 10.53 C1.16 12.81 1.16 15.1 1.16 17.39 C1.16 19.04 1.17 20.68 1.17 22.33 C1.19 26.88 1.19 31.42 1.2 35.96 C1.21 40.86 1.22 45.75 1.24 50.65 C1.26 59.13 1.28 67.62 1.29 76.1 C1.31 88.37 1.34 100.64 1.37 112.91 C1.42 132.81 1.46 152.72 1.5 172.62 C1.54 191.96 1.58 211.3 1.63 230.64 C1.63 231.83 1.63 233.02 1.64 234.25 C1.65 240.22 1.66 246.2 1.68 252.18 C1.79 301.78 1.9 351.39 2 401 C2.84 401 3.67 401 4.54 401 C54.11 401.08 103.67 401.18 153.24 401.28 C159.19 401.29 165.13 401.31 171.08 401.32 C172.86 401.32 172.86 401.32 174.67 401.32 C193.86 401.36 213.05 401.4 232.24 401.43 C251.92 401.46 271.6 401.5 291.27 401.54 C303.43 401.57 315.58 401.59 327.73 401.61 C336.05 401.62 344.37 401.64 352.7 401.66 C357.5 401.67 362.31 401.68 367.12 401.68 C371.52 401.69 375.91 401.7 380.31 401.71 C381.9 401.72 383.5 401.72 385.1 401.72 C387.25 401.72 389.41 401.73 391.57 401.74 C392.77 401.74 393.97 401.74 395.21 401.75 C398 402 398 402 400 404 C400.08 406.72 400.04 409.32 399.9 412.03 C399.86 412.85 399.83 413.66 399.79 414.5 C399.66 417.17 399.52 419.83 399.38 422.5 C399.33 423.4 399.28 424.31 399.23 425.24 C398.26 443.8 395.7 461.79 392 480 C391.75 481.27 391.5 482.55 391.25 483.86 C388.13 498.84 383.58 513.42 379 528 C378.65 529.12 378.3 530.25 377.93 531.41 C377.59 532.46 377.26 533.52 376.91 534.6 C376.61 535.53 376.31 536.45 376.01 537.4 C374.94 540.16 373.54 542.48 372 545 C371.45 546.35 370.95 547.72 370.5 549.1 C370.25 549.84 370 550.58 369.75 551.34 C369.25 552.87 368.75 554.4 368.25 555.94 C368 556.67 367.75 557.41 367.5 558.16 C367.18 559.16 367.18 559.16 366.84 560.18 C365.88 562.27 364.62 563.39 363 565 C362.25 566.93 361.5 568.87 360.81 570.83 C356.91 581.31 350.43 591.06 344.94 600.75 C344.42 601.67 343.9 602.59 343.37 603.54 C340.84 607.99 338.3 612.06 335 616 C333.99 617.66 332.99 619.33 332 621 C325.12 631.42 317.59 641.09 309.34 650.45 C306.1 654.19 303.07 658.12 300 662 C296.87 665.9 293.55 669.48 290 673 C288.98 674.03 287.97 675.06 286.95 676.09 C281.8 681.29 276.67 686.46 271.08 691.2 C268.9 693.08 266.79 695.03 264.68 696.99 C255.64 705.39 246.05 712.84 236 720 C235.23 720.55 234.47 721.1 233.68 721.67 C220.72 730.9 207.24 739.88 193 747 C191.66 747.72 190.33 748.44 189 749.16 C177.99 755.12 166.81 760.29 155.24 765.07 C153.37 765.85 151.5 766.65 149.64 767.46 C133.95 774.26 117.35 778.96 100.77 783.05 C97.91 783.77 95.13 784.57 92.31 785.44 C84.16 787.69 75.73 788.54 67.36 789.67 C64.54 790.06 61.74 790.55 58.94 791.06 C41.29 794 23.64 794.38 5.8 794.37 C3.03 794.37 0.27 794.38 -2.49 794.41 C-22.38 794.61 -41.33 793.1 -61 790 C-63.78 789.59 -66.56 789.18 -69.35 788.78 C-77.02 787.63 -84.51 786.04 -92 784 C-93.96 783.52 -95.92 783.04 -97.88 782.56 C-119.13 777.22 -139.37 770.17 -159.35 761.18 C-161.82 760.08 -164.31 759.01 -166.8 757.95 C-167.52 757.63 -168.25 757.32 -169 757 C-170.91 756.19 -172.81 755.38 -174.72 754.57 C-178.05 752.97 -180.97 751.1 -184 749 C-185.98 747.97 -187.98 746.97 -190 746 C-191.36 745.34 -192.71 744.67 -194.06 744 C-194.69 743.69 -195.32 743.38 -195.97 743.06 C-206.86 737.36 -216.96 730.06 -227 723 C-227.85 722.41 -227.85 722.41 -228.72 721.8 C-241.11 713.12 -253.05 704.07 -264.09 693.7 C-266.3 691.65 -268.53 689.67 -270.82 687.7 C-275.25 683.84 -279.42 679.73 -283.56 675.56 C-284.28 674.85 -284.99 674.14 -285.73 673.4 C-289.76 669.37 -293.59 665.24 -297.3 660.91 C-298.97 659.03 -300.73 657.29 -302.55 655.55 C-306.34 651.81 -309.27 647.65 -312.25 643.25 C-313.27 641.75 -314.3 640.26 -315.33 638.77 C-315.77 638.11 -316.21 637.46 -316.67 636.79 C-317.95 634.98 -317.95 634.98 -319.49 633.51 C-321.2 631.8 -322.49 630 -323.86 628.01 C-324.66 626.84 -324.66 626.84 -325.48 625.64 C-326.04 624.81 -326.61 623.98 -327.19 623.12 C-328.07 621.83 -328.07 621.83 -328.97 620.51 C-333.51 613.79 -337.93 607.02 -342 600 C-342.51 599.12 -343.02 598.24 -343.55 597.34 C-351.13 584.25 -358.15 571.11 -364.06 557.18 C-365.03 554.93 -366.03 552.69 -367.04 550.45 C-379.75 521.89 -388.24 489.85 -392.42 458.93 C-392.87 455.11 -392.87 455.11 -394 452 C-397.14 434.03 -397.3 415.8 -397.31 397.62 C-397.32 396.57 -397.32 395.51 -397.32 394.42 C-397.34 382.41 -396.91 370.88 -395 359 C-394.82 357.47 -394.66 355.94 -394.51 354.41 C-392.25 331.4 -387.75 308.52 -381.31 286.31 C-381.11 285.61 -380.91 284.91 -380.7 284.19 C-379.76 281.06 -378.83 278.74 -377 276 C-376.5 274.18 -376.06 272.35 -375.65 270.51 C-374.17 264.33 -372.06 258.65 -369.56 252.81 C-369.13 251.79 -368.7 250.78 -368.26 249.73 C-361.66 234.32 -354.47 219.12 -346.32 204.47 C-345.15 202.28 -344.17 200.12 -343.25 197.81 C-342 195 -342 195 -339 193 C-338.59 192.18 -338.18 191.35 -337.75 190.5 C-335.75 186.51 -333.29 183.08 -330.7 179.46 C-329.29 177.42 -328.05 175.42 -326.88 173.25 C-325.26 170.45 -323.54 168.11 -321.43 165.67 C-317.78 161.4 -314.2 157.01 -311.31 152.19 C-310 150 -310 150 -308.16 148.16 C-305.95 145.95 -304.06 143.64 -302.12 141.19 C-292.21 128.96 -281.2 117.22 -269.24 106.96 C-267.08 105.07 -264.97 103.12 -262.88 101.15 C-253.05 91.98 -242.42 83.96 -231.56 76.06 C-230.82 75.52 -230.07 74.97 -229.3 74.41 C-225 71.31 -220.63 68.6 -216 66 C-215.48 65.48 -214.97 64.97 -214.44 64.44 C-212.3 62.3 -209.72 61.33 -207 60 C-204.44 58.49 -201.9 56.95 -199.37 55.4 C-197 54 -197 54 -194.79 52.91 C-192.91 52.08 -192.91 52.08 -191.56 50.44 C-189.51 48.55 -187.7 48.54 -185 48 C-184.55 47.55 -184.09 47.09 -183.62 46.62 C-181.21 44.21 -178.12 43.28 -175 42 C-172.58 40.96 -170.16 39.92 -167.75 38.88 C-167.06 38.58 -166.37 38.28 -165.66 37.97 C-161.93 36.34 -158.25 34.65 -154.61 32.82 C-141.81 26.43 -128.71 22.06 -115 18 C-113.55 17.56 -113.55 17.56 -112.08 17.12 C-101.13 13.83 -90.26 11.03 -79 9 C-77.19 8.65 -75.37 8.3 -73.56 7.94 C-72.77 7.78 -71.99 7.63 -71.18 7.46 C-69.19 7.04 -67.22 6.52 -65.25 6 C-51.92 2.64 -37.97 2.25 -24.31 1.38 C-22.28 1.24 -20.25 1.1 -18.22 0.97 C-14.53 0.72 -10.85 0.48 -7.16 0.24 C-6.42 0.2 -5.69 0.15 -4.94 0.1 C-3.29 0.02 -1.65 0 0 0 Z " fill="#F89209" transform="translate(406,9)"/>
<path d="M0 0 C1.3 1.02 1.3 1.02 2.62 2.06 C13.14 11.09 20.4 22.39 26 35 C26.55 36.19 26.55 36.19 27.11 37.41 C33.82 52.9 35.18 68.7 35.19 85.38 C35.2 86.61 35.21 87.85 35.22 89.12 C35.24 96.96 34.59 104.33 33 112 C32.85 112.74 32.7 113.48 32.54 114.24 C28.9 131.05 22.46 147.77 9.48 159.62 C7.81 161.1 7.81 161.1 6.06 163.56 C-1.69 172.73 -17.06 181.3 -29 183 C-29.99 182.67 -30.98 182.34 -32 182 C-32.33 182.99 -32.66 183.98 -33 185 C-42.63 186.62 -51.86 187.31 -61.62 187.25 C-63.45 187.26 -63.45 187.26 -65.32 187.27 C-92.41 187.22 -116.07 177.43 -135.16 158.27 C-139.39 153.87 -142.42 149.54 -145 144 C-145.66 143.09 -146.32 142.19 -147 141.25 C-157.09 124.85 -158.75 104.65 -158.56 85.88 C-158.56 84.99 -158.56 84.11 -158.55 83.19 C-158.38 47.22 -158.38 47.22 -150 35 C-149.41 33.74 -148.84 32.47 -148.31 31.19 C-147.88 30.14 -147.45 29.08 -147 28 C-146.34 28 -145.68 28 -145 28 C-144.63 26.45 -144.63 26.45 -144.25 24.88 C-142.45 18.63 -138.63 14.42 -134 10 C-133.14 9.1 -133.14 9.1 -132.25 8.19 C-123.42 -0.93 -114.74 -7.08 -103 -12 C-102.31 -12.32 -101.61 -12.64 -100.9 -12.96 C-96.72 -14.88 -92.48 -16.08 -88 -17 C-87.18 -17.19 -86.36 -17.37 -85.52 -17.57 C-56.06 -23.26 -23.79 -18.95 0 0 Z " fill="#030303" transform="translate(633,157)"/>
<path d="M0 0 C1.73 -0.01 1.73 -0.01 3.5 -0.02 C4.76 -0.02 6.01 -0.02 7.31 -0.02 C8.59 -0.03 9.87 -0.03 11.19 -0.03 C13.91 -0.04 16.62 -0.04 19.34 -0.04 C22.82 -0.04 26.31 -0.05 29.79 -0.07 C33.11 -0.08 36.43 -0.08 39.75 -0.09 C41 -0.09 42.26 -0.1 43.55 -0.11 C45.29 -0.1 45.29 -0.1 47.06 -0.1 C48.59 -0.1 48.59 -0.1 50.16 -0.1 C52.59 0.15 52.59 0.15 54.59 2.15 C55.22 4.09 55.22 4.09 55.74 6.48 C55.94 7.35 56.14 8.22 56.34 9.12 C56.55 10.06 56.76 10.99 56.97 11.96 C58.97 20.71 58.97 20.71 61.47 29.33 C63.61 36.01 65.45 42.76 67.28 49.52 C67.75 51.22 67.75 51.22 68.22 52.95 C70.67 62.03 70.67 62.03 71.22 66.24 C71.6 69.16 72.52 71.32 73.77 73.97 C75.3 78 76.05 82.24 76.95 86.45 C77.32 89.05 77.32 89.05 78.59 90.15 C79.07 92.73 79.5 95.3 79.91 97.9 C81.01 104.55 82.56 110.84 84.68 117.25 C85.54 119.96 86.16 122.62 86.72 125.4 C87.01 126.63 87.3 127.87 87.59 129.15 C88.25 129.48 88.91 129.81 89.59 130.15 C89.8 129.43 90 128.72 90.22 127.99 C90.48 127.07 90.75 126.15 91.03 125.21 C91.3 124.29 91.57 123.37 91.84 122.43 C92.59 120.15 92.59 120.15 93.59 119.15 C94.25 116 94.84 112.85 95.4 109.69 C96.04 106.26 96.63 104.09 98.59 101.15 C98.59 100.16 98.59 99.17 98.59 98.15 C98.59 95.15 98.59 95.15 100.59 92.15 C100.85 90.15 101.11 88.15 101.31 86.14 C101.67 83.62 102.59 81.48 103.59 79.15 C103.59 78.16 103.59 77.17 103.59 76.15 C103.92 75.82 104.25 75.49 104.59 75.15 C105.13 72.7 105.56 70.25 106 67.79 C106.59 65.15 106.59 65.15 107.6 62.67 C109.01 59.09 109.45 55.46 110.03 51.67 C110.59 49.15 110.59 49.15 112.59 46.15 C113.16 44.01 113.16 44.01 113.53 41.65 C114.19 38.06 114.98 34.57 115.97 31.06 C117.07 27.08 118.13 23.1 119.16 19.11 C119.42 18.12 119.68 17.12 119.94 16.1 C120.47 14.05 120.99 12.01 121.52 9.96 C121.77 8.98 122.03 8 122.29 6.99 C122.52 6.1 122.74 5.22 122.98 4.31 C123.59 2.15 123.59 2.15 124.59 0.15 C132.12 0.12 139.65 0.1 147.18 0.09 C150.67 0.09 154.17 0.08 157.66 0.07 C161.68 0.06 165.7 0.05 169.71 0.05 C171.6 0.04 171.6 0.04 173.52 0.03 C174.69 0.03 175.85 0.03 177.04 0.03 C178.07 0.03 179.09 0.03 180.15 0.03 C182.59 0.15 182.59 0.15 184.59 1.15 C184.59 66.16 184.59 131.17 184.59 198.15 C172.71 198.15 160.83 198.15 148.59 198.15 C147.24 195.44 147.45 193.32 147.44 190.29 C147.42 188.41 147.42 188.41 147.41 186.5 C147.4 185.11 147.39 183.72 147.39 182.33 C147.38 180.87 147.37 179.42 147.36 177.96 C147.33 173.99 147.31 170.02 147.29 166.06 C147.27 161.91 147.24 157.77 147.21 153.63 C147.16 145.78 147.12 137.93 147.08 130.08 C147.03 121.15 146.97 112.22 146.92 103.28 C146.8 84.9 146.7 66.53 146.59 48.15 C146.48 48.7 146.37 49.25 146.26 49.83 C145.75 52.35 145.24 54.87 144.72 57.4 C144.54 58.27 144.37 59.14 144.19 60.04 C144.02 60.88 143.84 61.73 143.66 62.6 C143.51 63.37 143.35 64.15 143.19 64.95 C142.58 67.21 141.68 69.07 140.59 71.15 C140.06 73.16 140.06 73.16 139.74 75.25 C139.55 76.39 139.55 76.39 139.35 77.54 C139.23 78.32 139.1 79.09 138.97 79.9 C138.83 80.69 138.7 81.48 138.56 82.3 C138.23 84.25 137.91 86.2 137.59 88.15 C136.93 88.15 136.27 88.15 135.59 88.15 C135.03 91.38 134.55 94.57 134.2 97.84 C133.66 102.23 132.53 106.34 131.28 110.58 C129.32 117.43 127.57 124.29 125.98 131.22 C124.86 136.09 123.6 140.9 122.25 145.7 C121.58 148.21 121.01 150.73 120.47 153.27 C119.59 157.15 119.59 157.15 118.59 158.15 C118.12 160.33 117.69 162.51 117.28 164.71 C115.94 171.71 114.27 178.59 112.46 185.49 C111.51 189.15 111.51 189.15 111.16 192.99 C110.88 194.55 110.88 194.55 110.59 196.15 C106.74 198.72 103.53 198.45 99.06 198.45 C98.22 198.45 97.39 198.45 96.53 198.46 C94.77 198.46 93 198.47 91.24 198.46 C88.54 198.46 85.84 198.48 83.13 198.51 C81.42 198.51 79.71 198.51 78 198.51 C76.78 198.52 76.78 198.52 75.54 198.54 C73.26 198.52 73.26 198.52 69.59 198.15 C67.15 194.48 66.53 190.88 65.66 186.65 C64.18 179.74 62.54 172.94 60.59 166.15 C60.07 164.27 59.55 162.4 59.03 160.52 C58.69 159.29 58.69 159.29 58.34 158.04 C57.74 155.7 57.2 153.36 56.68 151 C55.51 145.65 54.12 140.37 52.72 135.08 C52.19 133.05 51.65 131.01 51.12 128.98 C50.4 126.21 49.67 123.44 48.94 120.67 C45.51 107.61 45.51 107.61 45.03 101.96 C44.89 98.24 44.89 98.24 43.16 95.92 C41.17 92.39 40.67 88.91 40.09 84.96 C39.18 79.22 38.03 73.8 36.21 68.27 C35.6 66.17 35.34 64.26 35.16 62.08 C34.63 57.13 34.63 57.13 30.59 49.15 C30.59 98.32 30.59 147.49 30.59 198.15 C18.71 198.15 6.83 198.15 -5.41 198.15 C-6.94 195.08 -6.54 191.87 -6.53 188.51 C-6.54 187.31 -6.54 187.31 -6.54 186.09 C-6.54 183.41 -6.54 180.72 -6.54 178.03 C-6.54 176.11 -6.54 174.19 -6.54 172.27 C-6.55 167.05 -6.54 161.82 -6.54 156.6 C-6.54 151.14 -6.54 145.69 -6.54 140.23 C-6.54 131.06 -6.54 121.9 -6.54 112.74 C-6.53 102.13 -6.53 91.51 -6.54 80.9 C-6.54 71.81 -6.54 62.71 -6.54 53.62 C-6.54 48.18 -6.54 42.74 -6.54 37.3 C-6.55 32.19 -6.54 27.08 -6.54 21.97 C-6.54 20.09 -6.54 18.21 -6.54 16.33 C-6.54 13.77 -6.54 11.21 -6.53 8.66 C-6.54 7.9 -6.54 7.15 -6.54 6.37 C-6.52 0.16 -6.1 0.02 0 0 Z " fill="#030303" transform="translate(1077.406005859375,141.854736328125)"/>
<path d="M0 0 C3.04 2.78 5.32 5.65 7.5 9.12 C7.88 9.73 8.26 10.34 8.66 10.96 C15.19 21.72 17.72 32.19 17.93 44.68 C4.92 45.65 -8.02 45.8 -21.07 45.68 C-21.51 44.63 -21.96 43.58 -22.41 42.5 C-28.26 28.52 -28.26 28.52 -40.07 19.68 C-51.14 15.47 -67.27 16.11 -78.07 20.68 C-82.22 22.83 -85.93 25.17 -89.07 28.68 C-89.85 30.94 -89.85 30.94 -90.07 33.68 C-90.23 34.94 -90.4 36.2 -90.57 37.49 C-90.45 42.06 -88.57 44.59 -85.43 47.8 C-77.52 54.1 -67.64 56.58 -57.99 58.92 C-55.07 59.68 -55.07 59.68 -54.07 60.68 C-51.57 61.17 -49.08 61.63 -46.57 62.05 C-40.51 63.14 -34.84 64.52 -29.07 66.68 C-27.57 67.19 -26.07 67.69 -24.57 68.18 C-23.83 68.43 -23.09 68.67 -22.33 68.93 C-20.78 69.44 -19.23 69.94 -17.68 70.43 C-13.42 71.78 -9.85 73.25 -6.07 75.68 C-4.78 76.29 -3.49 76.89 -2.19 77.49 C5.25 81.27 9.56 86.22 14.18 93.05 C14.82 93.99 14.82 93.99 15.47 94.95 C24.04 108.06 26.07 124.54 23.58 139.86 C21.3 150.36 16.3 160.08 9.93 168.68 C8.94 169.01 7.95 169.34 6.93 169.68 C6.67 170.28 6.4 170.88 6.12 171.49 C2.98 177.27 -5.39 179.98 -11.07 182.68 C-11.73 183 -12.4 183.33 -13.09 183.66 C-16.61 185.29 -19.22 185.79 -23.07 185.68 C-23.73 186.34 -24.39 187 -25.07 187.68 C-34.6 189.86 -44.33 189.99 -54.07 189.93 C-55.32 189.94 -56.57 189.95 -57.86 189.95 C-68.37 189.93 -79.46 189.66 -89.24 185.44 C-91.05 184.64 -91.05 184.64 -92.98 184.17 C-98.64 182.66 -103.36 179.91 -108.32 176.87 C-109 176.45 -109.69 176.04 -110.39 175.61 C-114.86 172.79 -117.82 169.84 -121.07 165.68 C-121.73 165.35 -122.39 165.02 -123.07 164.68 C-124.12 162.71 -125.11 160.7 -126.07 158.68 C-126.56 157.7 -127.06 156.72 -127.57 155.71 C-132.12 146.7 -135.92 139.1 -136.63 128.93 C-136.71 127.76 -136.8 126.59 -136.88 125.38 C-136.94 124.49 -137 123.6 -137.07 122.68 C-133.82 120.52 -132.46 120.33 -128.66 120.05 C-127.58 119.96 -126.51 119.88 -125.4 119.79 C-124.28 119.71 -123.16 119.64 -122 119.55 C-120.91 119.47 -119.81 119.38 -118.69 119.29 C-115.48 119.05 -112.28 118.86 -109.07 118.68 C-108.1 118.6 -107.13 118.53 -106.13 118.45 C-103.68 118.32 -101.48 118.26 -99.07 118.68 C-96.17 121.75 -95.51 125.34 -94.44 129.37 C-91.45 138.67 -84.47 145.84 -76.07 150.68 C-68.7 154.24 -61.78 154.16 -53.69 154.12 C-52.43 154.14 -51.16 154.16 -49.86 154.18 C-39.19 154.17 -30.82 152.24 -23.07 144.68 C-18.89 140.27 -17.21 136.17 -16.96 130.07 C-17.19 124.06 -18.33 119.91 -22.29 115.32 C-27.77 110.26 -34.95 108.68 -41.96 106.62 C-44.45 105.87 -46.8 105.04 -49.19 104.05 C-52.06 102.94 -54.77 102.34 -57.82 101.87 C-80.65 98 -105.76 88.85 -121.39 71.14 C-123.25 68.41 -124.08 65.81 -125.07 62.68 C-125.73 62.02 -126.39 61.36 -127.07 60.68 C-129.62 54.19 -129.36 47.71 -129.32 40.8 C-129.32 39.67 -129.33 38.54 -129.34 37.37 C-129.32 30.86 -129.08 24.9 -127.07 18.68 C-124.99 17.44 -124.99 17.44 -123.07 16.68 C-123.22 15.35 -123.22 15.35 -123.38 13.99 C-122.96 9.57 -121.28 8.66 -118.07 5.68 C-117.18 4.83 -116.3 3.98 -115.38 3.11 C-114.02 1.84 -114.02 1.84 -112.63 0.55 C-111.72 -0.29 -110.82 -1.14 -109.88 -2.02 C-107.06 -4.32 -104.34 -5.76 -101.07 -7.32 C-100.41 -7.98 -99.75 -8.64 -99.07 -9.32 C-68.28 -21.89 -27.05 -20.46 0 0 Z " fill="#030303" transform="translate(826.06640625,154.3203125)"/>
<path d="M0 0 C6.6 -0.18 13.2 -0.3 19.81 -0.38 C22.05 -0.42 24.3 -0.47 26.54 -0.53 C29.77 -0.61 33 -0.65 36.23 -0.68 C37.23 -0.72 38.23 -0.76 39.27 -0.79 C46.09 -0.8 46.09 -0.8 48.72 1.5 C50.01 3.29 51.03 5.02 52 7 C52.55 7.95 53.1 8.9 53.66 9.88 C54.12 10.76 54.59 11.65 55.06 12.56 C56.61 15.47 58.14 18.21 60 20.94 C61.88 23.82 63.36 26.67 64.88 29.75 C67.64 35.37 70.7 40.69 74 46 C75.27 48.06 76.54 50.12 77.81 52.19 C78.48 53.27 79.16 54.35 79.85 55.46 C81.4 57.99 82.9 60.55 84.37 63.13 C84.77 63.82 85.16 64.5 85.57 65.21 C86.34 66.55 87.11 67.89 87.85 69.24 C89.87 72.82 89.87 72.82 93.27 74.92 C93.84 74.95 94.41 74.97 95 75 C95.25 74.47 95.51 73.94 95.77 73.39 C96.29 72.33 96.29 72.33 96.81 71.25 C97.15 70.55 97.49 69.86 97.83 69.14 C99 67 99 67 100.46 65.06 C102.19 62.74 103.51 60.36 104.88 57.81 C105.39 56.85 105.91 55.89 106.45 54.9 C106.96 53.94 107.47 52.99 108 52 C108.91 50.31 109.83 48.62 110.75 46.94 C111.14 46.22 111.52 45.51 111.92 44.78 C113 43 113 43 115 41 C115.31 39.99 115.62 38.98 115.94 37.94 C116.29 36.97 116.64 36 117 35 C117.99 34.67 118.98 34.34 120 34 C120.49 32.34 120.98 30.67 121.39 28.98 C122.45 25.54 124.4 22.65 126.31 19.62 C127.12 18.31 127.94 17 128.75 15.68 C129.33 14.74 129.33 14.74 129.93 13.77 C131.71 10.82 133.33 7.79 134.93 4.73 C136.13 2.78 137.23 1.47 139 0 C141.02 -0.37 141.02 -0.37 143.35 -0.36 C144.22 -0.36 145.1 -0.36 146 -0.37 C146.94 -0.35 147.88 -0.34 148.85 -0.33 C149.82 -0.33 150.78 -0.32 151.78 -0.32 C153.83 -0.32 155.87 -0.3 157.92 -0.28 C161.05 -0.25 164.19 -0.24 167.33 -0.23 C169.32 -0.23 171.3 -0.21 173.29 -0.2 C174.23 -0.2 175.17 -0.19 176.14 -0.19 C177.45 -0.18 177.45 -0.18 178.78 -0.16 C179.93 -0.15 179.93 -0.15 181.11 -0.14 C183 0 183 0 185 1 C183.07 5.01 180.76 8.76 178.44 12.56 C177 14.91 177 14.91 176 17.12 C175 19 175 19 173.56 20.41 C171.48 22.53 170.36 24.86 169 27.5 C166.33 32.68 166.33 32.68 164.44 34.53 C162.55 36.46 161.98 38.5 161 41 C159.9 42.7 158.75 44.36 157.56 46 C155.21 49.26 153.06 52.55 151 56 C150.18 57.16 149.35 58.3 148.5 59.44 C146.95 61.57 145.75 63.5 144.56 65.88 C141.86 71.29 138.28 76.17 134.81 81.12 C132.87 84.03 132.87 84.03 131.5 87.62 C130 91 130 91 128.1 92.86 C125.75 95.26 124.46 97.58 122.94 100.56 C120.31 105.69 120.31 105.69 118.54 107.43 C113.6 112.46 112.41 118.54 112.45 125.34 C112.44 126.53 112.44 126.53 112.42 127.74 C112.39 130.33 112.39 132.91 112.39 135.5 C112.38 137.3 112.36 139.11 112.34 140.91 C112.3 145.64 112.28 150.37 112.26 155.1 C112.24 160.78 112.19 166.47 112.14 172.15 C112.07 180.77 112.04 189.38 112 198 C99.46 198 86.92 198 74 198 C72.5 195.01 72.91 191.96 72.95 188.68 C72.97 187.12 72.98 185.55 72.99 183.99 C73 183.15 73.01 182.32 73.01 181.46 C73.06 176.1 73.04 170.74 73.04 165.37 C73.05 160.67 73.07 155.98 73.13 151.28 C73.18 146.72 73.19 142.17 73.16 137.61 C73.16 135.89 73.18 134.17 73.21 132.45 C73.46 119.79 70.79 111.93 63.26 101.75 C61.26 98.98 59.56 96.06 57.81 93.12 C55.47 89.3 53.05 85.59 50.44 81.94 C47.21 77.42 44.45 72.71 41.7 67.89 C39.3 63.81 36.68 59.9 34 56 C32.01 53.09 30.18 50.38 28.69 47.19 C26.73 43.48 24.29 40.47 21.62 37.25 C19.93 34.9 19.03 32.69 18 30 C17.23 28.74 16.41 27.52 15.56 26.31 C12.28 21.51 9.23 16.58 6.19 11.62 C5.7 10.83 5.2 10.03 4.7 9.21 C4 8.07 4 8.07 3.29 6.91 C2.67 5.89 2.67 5.89 2.03 4.85 C1 3 1 3 0 0 Z " fill="#030303" transform="translate(866,142)"/>
<path d="M0 0 C1.54 -0.02 1.54 -0.02 3.12 -0.05 C9.67 -0.05 14.94 0.87 21 3.31 C21.77 3.58 22.54 3.85 23.33 4.13 C33.58 7.76 40.72 17.18 46 26.31 C46.38 26.96 46.76 27.6 47.14 28.27 C54 40.89 54.17 54.8 54.12 68.81 C54.13 69.97 54.13 71.13 54.14 72.32 C54.13 82.42 53.93 91.92 50 101.31 C49.59 102.36 49.17 103.42 48.75 104.5 C42.4 118.98 32.73 128.27 18.52 134.95 C12.75 137.04 6.82 136.79 0.75 136.75 C-0.98 136.78 -0.98 136.78 -2.74 136.81 C-12.64 136.8 -22.58 135.27 -30.25 128.5 C-31.46 127.45 -31.46 127.45 -32.69 126.38 C-33.45 125.69 -34.22 125.01 -35 124.31 C-35.71 123.76 -36.42 123.2 -37.15 122.62 C-48.28 113.74 -53.83 100.34 -55.69 86.48 C-59.14 48.03 -59.14 48.03 -52 37.31 C-51.69 36.12 -51.38 34.92 -51.06 33.69 C-50.71 32.57 -50.36 31.46 -50 30.31 C-49.01 29.98 -48.02 29.65 -47 29.31 C-46.94 28.45 -46.88 27.58 -46.81 26.69 C-45.82 22.58 -43.86 20.27 -41 17.31 C-40.51 16.79 -40.01 16.27 -39.51 15.73 C-35.43 11.51 -31.08 8.25 -26 5.31 C-24.76 4.45 -24.76 4.45 -23.5 3.56 C-16.17 -0.1 -8.02 -0.03 0 0 Z " fill="#FDFDFD" transform="translate(572,172.6875)"/>
<path d="M0 0 C0.55 0.16 1.11 0.32 1.68 0.49 C4.22 1.05 6.5 1.13 9.1 1.13 C10.06 1.13 11.03 1.14 12.03 1.14 C13.53 1.13 13.53 1.13 15.06 1.12 C16.57 1.13 16.57 1.13 18.11 1.14 C19.08 1.14 20.04 1.13 21.04 1.13 C22.36 1.13 22.36 1.13 23.7 1.13 C26.16 1.09 26.16 1.09 29 0 C30.48 2.96 30.12 5.95 30.1 9.2 C30.1 9.9 30.09 10.61 30.09 11.34 C30.09 13.6 30.08 15.86 30.06 18.12 C30.06 19.66 30.05 21.19 30.05 22.72 C30.04 26.48 30.02 30.24 30 34 C19.77 34 9.54 34 -1 34 C-2.75 27.01 -3.34 21.77 -3.31 14.75 C-3.33 13.77 -3.34 12.79 -3.36 11.78 C-3.36 10.37 -3.36 10.37 -3.36 8.92 C-3.37 8.07 -3.37 7.22 -3.37 6.35 C-2.92 3.52 -1.86 2.13 0 0 Z " fill="#050505" transform="translate(586,90)"/>
<path d="M0 0 C4.24 -0.02 8.47 -0.04 12.71 -0.05 C14.15 -0.06 15.59 -0.07 17.03 -0.08 C19.1 -0.09 21.17 -0.09 23.24 -0.1 C24.49 -0.1 25.73 -0.11 27.02 -0.11 C30 0 30 0 32 1 C32.02 5.25 32.04 9.51 32.05 13.76 C32.06 15.21 32.07 16.66 32.08 18.11 C32.09 20.18 32.09 22.26 32.1 24.34 C32.1 25.59 32.11 26.84 32.11 28.13 C32 31 32 31 31 32 C28.78 32.09 26.56 32.11 24.34 32.1 C23.34 32.1 23.34 32.1 22.33 32.09 C20.2 32.09 18.07 32.08 15.94 32.06 C14.5 32.06 13.06 32.05 11.62 32.05 C8.08 32.04 4.54 32.02 1 32 C-0.46 29.08 -0.11 26.5 -0.1 23.24 C-0.1 22.58 -0.09 21.92 -0.09 21.23 C-0.09 19.11 -0.08 16.99 -0.06 14.88 C-0.06 13.44 -0.05 12 -0.05 10.57 C-0.04 7.04 -0.02 3.52 0 0 Z " fill="#030303" transform="translate(525,92)"/>
</svg>
